#!OML:ASF H:\LiuWeirdWalks\Patient Classification 1\Patient 1\Session 1\male.ASF
:FULLY-SPECIFIED
:DEGREES
997
root 1.68832 17.4339 16.6571 4.51772 4.97469 -5.15876
lowerback 11.7695 -1.78523 -2.63341
upperback 0.0771896 -2.90825 -2.70451
thorax -6.54034 -1.38062 -0.865391
lowerneck -12.7581 2.23728 6.331
upperneck 19.8548 -0.00586708 7.97182
head 8.35703 1.27015 1.62344
rclavicle 1.15295e-014 3.33958e-014
rhumerus -14.3876 -23.1562 -2.21387
rradius 38.7333
rwrist -16.5183
rhand -20.5427 -7.93881
rfingers 7.12502
rthumb 5.81583 -37.839
lclavicle 1.15295e-014 3.33958e-014
lhumerus -35.7233 33.6061 25.5557
lradius 41.2966
lwrist 9.72805
lhand -16.6944 3.24409
lfingers 7.12502
lthumb 9.53026 33.0086
rfemur 3.82351 -8.52277 23.5904
rtibia 45.3895
rfoot 6.79735 -28.0114
rtoes -2.0858
lfemur -35.0058 5.23293 -9.96108
ltibia 38.0195
lfoot -3.56779 3.45202
ltoes -10.7211
998
root 1.77924 17.4348 16.7935 4.3083 4.80841 -4.80426
lowerback 11.8062 -1.61351 -2.51934
upperback 0.123891 -2.65562 -2.56987
thorax -6.50959 -1.25916 -0.83018
lowerneck -12.7681 2.08495 6.06839
upperneck 19.8543 -0.0802446 7.60234
head 8.35174 1.17907 1.53328
rclavicle 3.97569e-015 1.90833e-014
rhumerus -14.8939 -23.1531 -2.25153
rradius 38.7432
rwrist -16.0754
rhand -20.2835 -7.83897
rfingers 7.12502
rthumb 6.06614 -37.7321
lclavicle 3.97569e-015 1.90833e-014
lhumerus -35.2923 33.5439 25.3387
lradius 41.3106
lwrist 9.6268
lhand -16.6635 3.19644
lfingers 7.12502
lthumb 9.56005 32.9596
rfemur 3.40346 -8.66235 22.9251
rtibia 46.9529
rfoot 8.35003 -28.4862
rtoes 0.983892
lfemur -34.474 5.70977 -10.7078
ltibia 38.5468
lfoot -4.06335 3.16331
ltoes -10.02
999
root 1.86914 17.4489 16.9304 4.11923 4.59272 -4.38513
lowerback 11.8266 -1.42527 -2.46454
upperback 0.184675 -2.388 -2.43702
thorax -6.45253 -1.12879 -0.766825
lowerneck -12.9051 1.93315 5.73801
upperneck 19.9499 -0.163054 7.25366
head 8.40199 1.08751 1.46398
rclavicle 3.04141e-014 9.54166e-015
rhumerus -15.3854 -23.1648 -2.28381
rradius 38.8373
rwrist -15.6165
rhand -19.9875 -7.74629
rfingers 7.12502
rthumb 6.35191 -37.631
lclavicle 3.04141e-014 9.54166e-015
lhumerus -34.8504 33.5423 25.1707
lradius 41.3417
lwrist 9.55463
lhand -16.6476 3.1606
lfingers 7.12502
lthumb 9.57539 32.923
rfemur 2.95648 -8.78609 22.1888
rtibia 48.4669
rfoot 9.86193 -28.9607
rtoes 4.30139
lfemur -33.847 6.13441 -11.5038
ltibia 38.9356
lfoot -4.57826 3.0234
ltoes -9.52647
1000
root 1.95915 17.4548 17.0641 3.94461 4.36635 -3.91587
lowerback 11.8348 -1.22608 -2.44438
upperback 0.222413 -2.11114 -2.30448
thorax -6.41273 -0.99256 -0.685932
lowerneck -13.0029 1.76304 5.33555
upperneck 20.0915 -0.262426 6.94842
head 8.46072 0.987562 1.41941
rclavicle -9.54166e-015 -1.11319e-014
rhumerus -15.9149 -23.1496 -2.26907
rradius 39.0032
rwrist -14.9473
rhand -19.5365 -7.65102
rfingers 7.12502
rthumb 6.7873 -37.5222
lclavicle -9.54166e-015 -1.11319e-014
lhumerus -34.4281 33.5178 25.0401
lradius 41.3936
lwrist 9.51247
lhand -16.6324 3.14465
lfingers 7.12502
lthumb 9.59 32.9064
rfemur 2.46571 -8.92683 21.3891
rtibia 49.9697
rfoot 11.2573 -29.4551
rtoes 7.48895
lfemur -33.2168 6.47144 -12.333
ltibia 39.249
lfoot -5.07953 3.01405
ltoes -9.26553
1001
root 2.04813 17.4629 17.1969 3.78575 4.15648 -3.41507
lowerback 11.8332 -1.05793 -2.46399
upperback 0.265634 -1.88072 -2.17767
thorax -6.36138 -0.878019 -0.580944
lowerneck -13.1729 1.62512 4.98515
upperneck 20.2956 -0.334005 6.62724
head 8.5548 0.905832 1.36577
rclavicle 1.33186e-014 1.59028e-015
rhumerus -16.3066 -23.2164 -2.34963
rradius 39.1192
rwrist -14.2884
rhand -19.073 -7.56762
rfingers 7.12502
rthumb 7.23472 -37.4239
lclavicle 1.33186e-014 1.59028e-015
lhumerus -34.0727 33.5736 24.8356
lradius 41.4576
lwrist 9.48996
lhand -16.6277 3.12377
lfingers 7.12502
lthumb 9.59453 32.8853
rfemur 1.94765 -9.09095 20.5608
rtibia 51.414
rfoot 12.505 -30.0201
rtoes 10.2847
lfemur -32.5589 6.69517 -13.1721
ltibia 39.475
lfoot -5.57628 3.11795
ltoes -9.16042
1002
root 2.13571 17.4722 17.3288 3.63592 3.99393 -2.92725
lowerback 11.7889 -0.931004 -2.47418
upperback 0.246692 -1.70475 -2.05618
thorax -6.3532 -0.789886 -0.477866
lowerneck -13.0225 1.51053 4.74241
upperneck 20.4236 -0.356836 6.27396
head 8.56462 0.84255 1.28387
rclavicle 1.45113e-014 -1.11319e-014
rhumerus -16.5606 -23.2173 -2.51465
rradius 39.0778
rwrist -13.6106
rhand -18.6058 -7.4582
rfingers 7.12502
rthumb 7.68565 -37.2985
lclavicle 1.45113e-014 -1.11319e-014
lhumerus -33.8633 33.4392 24.5226
lradius 41.5764
lwrist 9.57815
lhand -16.6465 3.1762
lfingers 7.12502
lthumb 9.57639 32.9386
rfemur 1.40534 -9.29748 19.7594
rtibia 52.8086
rfoot 13.5621 -30.6816
rtoes 12.5922
lfemur -31.9017 6.79099 -13.9744
ltibia 39.6682
lfoot -6.08192 3.31303
ltoes -9.16064
